# xmcd CD database file
#
# Track frame offsets:
#	150
#	21960
#	39403
#	68295
#	85005
#	100170
#	115223
#	134280
#	144328
#	167058
#
# Disc length: 2469 seconds
#
# Revision: 1
# Processed by: cddbd v1.5.2PL0 Copyright (c) Steve Scherf et al.
# Submitted via: CDex 1.51
#
DISCID=7609a30a
DTITLE=Various Artist - American Folk Blues Festival "85
DYEAR=2008
DGENRE=Blues
TTITLE0=James "Sparky " Rucker - Babylon Blues
TTITLE1=James "Sparky" Rucker - Here Rattler Here
TTITLE2=Cash McCall - No More Doggin´
TTITLE3=Eddie "Cleanhead" Vinson and The Young Blues Thrillers - Mr. Cleanhead´s Blues
TTITLE4=Eddie "Cleanhead" Vinson and The Young Blues Thrillers - Kidney Stew
TTITLE5=Blind Joe Hil (One-Man-Blues-Band) - Big Boss Man
TTITLE6=Blind Joe Hil (One-Man-Blues-Band) - I´m Travellin´
TTITLE7=The Young Blues Thrillers - Blues Thriller´s Funk
TTITLE8=James "Son" Thomas - Standing At The Crossroads
TTITLE9=Margie Evans - Chilly Waters
EXTD=YEAR: 2008
EXTT0=
EXTT1=
EXTT2=
EXTT3=
EXTT4=
EXTT5=
EXTT6=
EXTT7=
EXTT8=
EXTT9=
PLAYORDER=
